<svg width="24" height="25" viewBox="0 0 24 25" fill="none" xmlns="http://www.w3.org/2000/svg">
<path d="M7.80603 7.53975V3.63672V7.53975ZM15.6121 7.53975V3.63672V7.53975ZM6.83028 11.4428H16.5879H6.83028ZM4.87876 21.2004H18.5394C19.0569 21.2004 19.5533 20.9947 19.9193 20.6288C20.2853 20.2628 20.4909 19.7664 20.4909 19.2488V7.53975C20.4909 7.02217 20.2853 6.5258 19.9193 6.15982C19.5533 5.79384 19.0569 5.58823 18.5394 5.58823H4.87876C4.36119 5.58823 3.86481 5.79384 3.49883 6.15982C3.13285 6.5258 2.92725 7.02217 2.92725 7.53975V19.2488C2.92725 19.7664 3.13285 20.2628 3.49883 20.6288C3.86481 20.9947 4.36119 21.2004 4.87876 21.2004Z" stroke="#FFFFFF" stroke-width="2" stroke-linecap="round" stroke-linejoin="round"/>
</svg>
